<?xml version="1.0" encoding="utf-8"?>
<!-- Generator: Adobe Illustrator 19.2.0, SVG Export Plug-In . SVG Version: 6.00 Build 0)  -->
<svg version="1.1" id="Layer_1" xmlns="http://www.w3.org/2000/svg" xmlns:xlink="http://www.w3.org/1999/xlink" x="0px" y="0px"
	 viewBox="0 0 121.2 203" style="enable-background:new 0 0 121.2 203;" xml:space="preserve">
<style type="text/css">
	.st0{fill:#825EA3;}
</style>
<g id="a3tl5i_1_">
	<g>
		<path class="st0" d="M0.5,0.2c13,0,26.1,0,39.1,0C40,0.8,40.5,1.4,40.9,2c2.3,3.2,4.5,6.4,7,9.5c1,1.2,2.3,2.2,3.7,2.9
			c1.7,0.9,3.6,1.5,5.5,2c0.7,0.2,1.5,0.3,2.2,0.1c4-0.9,8-2,12.1-2.9c2.5-0.6,5-1.6,7.7-1.1c3.3,0.6,4.5,1.3,5.4,4.5
			c0.2,0.5,0.3,1,0.4,1.5c1.3,6,2.5,12.1,3.9,18.1c0.8,3.6,1.5,7.2,4.4,9.9c0.2,0.2,0.3,0.6,0.4,0.9c1.3,4.2,2.7,8.3,3.9,12.6
			c1.3,4.9,3.2,9.7,3.6,14.8c0.2,2,0,4.1-1.4,5.8c-1.2,1.3-2.4,2.6-3.5,3.9c-1.1,1.2-1.9,2.5-1.6,4.2c0.3,2.1,0.3,4.3,0.9,6.4
			c1.5,5.3,3.2,10.4,4.8,15.6c5.4,16.9,11.9,33.4,20.2,49.1c0.2,0.5,0.4,1,0.6,1.4c0.3,0.6,0.1,0.9-0.6,0.9c-0.3,0-0.6,0-0.8,0
			c-5-0.2-10-0.6-15.1-0.7c-3.9,0-7.7-0.5-11.4-1.7c-4.1-1.3-7.2-3.8-9-7.8c-2.8-6.5-5.3-13.1-6.9-20c-2-8.5-3.6-17.1-5.3-25.7
			c-1.5-7-3.2-14-6.2-20.5c-2.3-4.9-5-9.4-9.4-12.7c-3.3-2.5-6.4-2.1-8.9,1.2c-3.2,4.2-4.7,9-4.7,14.2c0,5.8,0.2,11.7,0.2,17.5
			c0,10.2,0,20.4-0.2,30.6c-0.1,7.2-0.5,14.4-1,21.5c-0.3,4.4-1,8.9-1.8,13.2c-0.5,2.4-1.6,4.7-2.6,7c-2.7,6.2-5.4,12.4-8.1,18.5
			c-0.2,0.4-0.4,0.9-0.8,1.2c-3.1,2.1-6.2,4.2-10.1,4.7c-2.2,0.3-4.4,0.8-6.4-0.5c-2.2-1.4-4.4-2.8-6.2-4.6
			c-3.9-3.8-4.7-8.9-4.9-13.9c-0.3-8.1-0.1-16.3-0.1-24.5c0-52.5,0-105,0-157.6C0.6,1.2,0.5,0.7,0.5,0.2z"/>
	</g>
</g>
</svg>
